<svg width="25" height="25" viewBox="0 0 25 25" fill="none"
  xmlns="http://www.w3.org/2000/svg">
  <path d="M9.24781 22.25H8C7.87462 22.25 7.75125 22.2185 7.64118 22.1585C7.5311 22.0984 7.43783 22.0118 7.36989 21.9064C7.30196 21.801 7.26152 21.6803 7.25229 21.5552C7.24305 21.4302 7.26531 21.3048 7.31703 21.1906L10.3386 14.5227L5.80156 14.4219L4.14688 16.4267C3.83141 16.8233 3.57969 17 2.9375 17H2.0975C1.9645 17.0043 1.83243 16.9764 1.71248 16.9188C1.59253 16.8612 1.48824 16.7755 1.40844 16.6691C1.29688 16.5186 1.18719 16.2636 1.29406 15.8998L2.22313 12.5717C2.23016 12.5469 2.23859 12.522 2.24797 12.4977C2.24844 12.4953 2.24844 12.4929 2.24797 12.4906C2.23829 12.4663 2.22999 12.4414 2.22313 12.4161L1.29313 9.06687C1.19234 8.71016 1.3025 8.46078 1.41313 8.31406C1.48741 8.21549 1.58379 8.13573 1.69451 8.08118C1.80523 8.02664 1.9272 7.99883 2.05063 8H2.9375C3.41703 8 3.8825 8.21516 4.15625 8.5625L5.77672 10.5336L10.3386 10.4661L7.31797 3.80984C7.26618 3.69568 7.24383 3.57036 7.25297 3.44533C7.26211 3.3203 7.30244 3.19956 7.37028 3.09414C7.43812 2.98872 7.5313 2.90198 7.64131 2.84186C7.75132 2.78175 7.87464 2.75016 8 2.75H9.26141C9.43739 2.75354 9.61031 2.79667 9.76734 2.8762C9.92436 2.95572 10.0615 3.0696 10.1684 3.20937L16.0302 10.3344L18.7381 10.2631C18.9364 10.2523 19.4858 10.2486 19.6128 10.2486C22.2031 10.25 23.75 11.0909 23.75 12.5C23.75 12.9434 23.5728 13.7656 22.3873 14.2887C21.6875 14.5981 20.7537 14.7547 19.6119 14.7547C19.4862 14.7547 18.9383 14.7509 18.7372 14.7402L16.0297 14.668L10.1534 21.793C10.0464 21.9321 9.90939 22.0454 9.75264 22.1246C9.59589 22.2037 9.42336 22.2465 9.24781 22.25Z" fill="black" fill-opacity="0.8"/>
</svg>
