<svg width="30" height="30" viewBox="0 0 30 30" fill="none"
  xmlns="http://www.w3.org/2000/svg">
  <path d="M23.625 5.25V22.75C23.625 23.2141 23.4406 23.6592 23.1124 23.9874C22.7842 24.3156 22.3391 24.5 21.875 24.5H17.5C17.0359 24.5 16.5908 24.3156 16.2626 23.9874C15.9344 23.6592 15.75 23.2141 15.75 22.75V5.25C15.75 4.78587 15.9344 4.34075 16.2626 4.01256C16.5908 3.68437 17.0359 3.5 17.5 3.5H21.875C22.3391 3.5 22.7842 3.68437 23.1124 4.01256C23.4406 4.34075 23.625 4.78587 23.625 5.25ZM10.5 3.5H6.125C5.66087 3.5 5.21575 3.68437 4.88756 4.01256C4.55937 4.34075 4.375 4.78587 4.375 5.25V22.75C4.375 23.2141 4.55937 23.6592 4.88756 23.9874C5.21575 24.3156 5.66087 24.5 6.125 24.5H10.5C10.9641 24.5 11.4092 24.3156 11.7374 23.9874C12.0656 23.6592 12.25 23.2141 12.25 22.75V5.25C12.25 4.78587 12.0656 4.34075 11.7374 4.01256C11.4092 3.68437 10.9641 3.5 10.5 3.5Z" fill="#E1E1E6"/>
</svg>
