<svg width="24" height="24" viewBox="0 0 24 24" fill="none" xmlns="http://www.w3.org/2000/svg">
<g clip-path="url(#clip0_538_25)">
<path d="M12 4.49988C13.0355 4.49988 13.875 3.66041 13.875 2.62488C13.875 1.58934 13.0355 0.749878 12 0.749878C10.9645 0.749878 10.125 1.58934 10.125 2.62488C10.125 3.66041 10.9645 4.49988 12 4.49988Z" stroke="white" stroke-width="1.5" stroke-linejoin="round"/>
<path d="M9.5733 12.8642C9.70924 12.0177 9.77018 11.1992 9.54987 10.6335C9.36237 10.1469 8.95455 9.87456 8.46237 9.68894L4.12502 8.2855C3.56252 8.098 3.03705 7.78394 3.00002 7.16331C2.95315 6.36644 3.65627 5.85081 4.3594 6.03831C4.3594 6.03831 8.4844 7.498 12 7.498C15.5156 7.498 19.5938 6.04487 19.5938 6.04487C20.4375 5.8105 21 6.46675 21 7.16003C21 7.82612 20.4844 8.0605 19.875 8.28222L15.75 9.778C15.375 9.91862 14.7656 10.1999 14.5313 10.6302C14.25 11.1341 14.2969 12.0144 14.4328 12.861L14.7094 14.2499L16.463 21.9327C16.5942 22.5491 16.1677 23.1252 15.5536 23.233C14.9396 23.3408 14.4375 22.9217 14.2556 22.3255L12.495 16.8913C12.4103 16.6307 12.3353 16.3671 12.27 16.1005L12 14.9999L11.7516 16.0147C11.6728 16.3382 11.5822 16.6582 11.4797 16.9747L9.75002 22.3208C9.56252 22.9232 9.07034 23.3403 8.45627 23.233C7.84221 23.1257 7.40627 22.5022 7.54409 21.9327L9.29674 14.2532L9.5733 12.8642Z" stroke="white" stroke-width="1.5" stroke-linejoin="round"/>
</g>
<defs>
<clipPath id="clip0_538_25">
<rect width="24" height="24" fill="white"/>
</clipPath>
</defs>
</svg>
