<svg width="24" height="24" viewBox="0 0 24 24" fill="none" xmlns="http://www.w3.org/2000/svg">
<path d="M21 12C21 7.03125 16.9688 3 12 3C7.03125 3 3 7.03125 3 12C3 16.9688 7.03125 21 12 21C16.9688 21 21 16.9688 21 12Z" stroke="white" stroke-width="1.5" stroke-miterlimit="10"/>
<path d="M10.14 15.6767L15.5049 12.4358C15.5796 12.3902 15.6414 12.3262 15.6843 12.2498C15.7272 12.1735 15.7497 12.0874 15.7497 11.9998C15.7497 11.9122 15.7272 11.8262 15.6843 11.7498C15.6414 11.6735 15.5796 11.6094 15.5049 11.5639L10.14 8.32294C10.0631 8.27687 9.97534 8.25208 9.8857 8.25113C9.79607 8.25017 9.70779 8.27308 9.62993 8.3175C9.55206 8.36191 9.48742 8.42625 9.44262 8.50389C9.39782 8.58154 9.37449 8.6697 9.37501 8.75934V15.2403C9.37449 15.3299 9.39782 15.4181 9.44262 15.4957C9.48742 15.5734 9.55206 15.6377 9.62993 15.6821C9.70779 15.7266 9.79607 15.7495 9.8857 15.7485C9.97534 15.7475 10.0631 15.7228 10.14 15.6767Z" fill="white"/>
</svg>
