<svg width="24" height="24" viewBox="0 0 24 24" fill="none" xmlns="http://www.w3.org/2000/svg">
<path d="M10.3636 2.99976C8.90722 2.99976 7.48354 3.43162 6.2726 4.24075C5.06167 5.04987 4.11786 6.1999 3.56052 7.54542C3.00319 8.89095 2.85737 10.3715 3.14149 11.7999C3.42562 13.2283 4.12693 14.5404 5.15675 15.5702C6.18657 16.6 7.49863 17.3013 8.92703 17.5855C10.3554 17.8696 11.836 17.7238 13.1815 17.1664C14.527 16.6091 15.6771 15.6653 16.4862 14.4543C17.2953 13.2434 17.7272 11.8197 17.7272 10.3633C17.7271 8.41044 16.9512 6.53755 15.5703 5.15664C14.1894 3.77573 12.3165 2.99988 10.3636 2.99976Z" stroke="white" stroke-width="1.5" stroke-miterlimit="10"/>
<path d="M15.8574 15.8573L21 21" stroke="white" stroke-width="1.5" stroke-miterlimit="10" stroke-linecap="round"/>
</svg>
