<svg width="16" height="16" viewBox="0 0 16 16" fill="none" xmlns="http://www.w3.org/2000/svg">
<path d="M9.14371 12.7432L5.39371 2.74316C5.34458 2.61211 5.25662 2.49917 5.14158 2.41944C5.02655 2.33972 4.88992 2.297 4.74996 2.297C4.61 2.297 4.47337 2.33972 4.35834 2.41944C4.2433 2.49917 4.15534 2.61211 4.10621 2.74316L0.356211 12.7432C0.294188 12.9135 0.301914 13.1013 0.377707 13.266C0.453501 13.4306 0.591231 13.5586 0.760937 13.6222C0.930644 13.6858 1.1186 13.6798 1.28392 13.6056C1.44923 13.5313 1.57854 13.3948 1.64371 13.2257L2.77371 10.2125C2.77816 10.2006 2.78614 10.1904 2.79658 10.1831C2.80702 10.1758 2.81943 10.1719 2.83215 10.1719H6.66777C6.68049 10.1719 6.6929 10.1758 6.70334 10.1831C6.71378 10.1904 6.72176 10.2006 6.72621 10.2125L7.85621 13.2257C7.92138 13.3948 8.05069 13.5313 8.21601 13.6056C8.38132 13.6798 8.56928 13.6858 8.73898 13.6222C8.90869 13.5586 9.04642 13.4306 9.12221 13.266C9.19801 13.1013 9.20573 12.9135 9.14371 12.7432ZM3.33621 8.71191L4.69152 5.09785C4.69602 5.08599 4.70402 5.07578 4.71446 5.06858C4.7249 5.06137 4.73728 5.05752 4.74996 5.05752C4.76264 5.05752 4.77503 5.06137 4.78546 5.06858C4.7959 5.07578 4.8039 5.08599 4.8084 5.09785L6.16371 8.71254C6.16724 8.72198 6.16843 8.73214 6.16718 8.74215C6.16594 8.75215 6.16229 8.76171 6.15654 8.77C6.1508 8.77829 6.14314 8.78507 6.13421 8.78975C6.12529 8.79444 6.11536 8.7969 6.10527 8.79691H3.39465C3.38456 8.7969 3.37464 8.79444 3.36571 8.78975C3.35678 8.78507 3.34912 8.77829 3.34338 8.77C3.33764 8.76171 3.33399 8.75215 3.33274 8.74215C3.33149 8.73214 3.33268 8.72198 3.33621 8.71254V8.71191ZM12.524 5.29691C11.2203 5.28754 10.0528 6.04285 9.55527 7.21566C9.484 7.3835 9.48231 7.57277 9.55058 7.74184C9.61886 7.91092 9.7515 8.04595 9.91934 8.11723C10.0872 8.1885 10.2764 8.19019 10.4455 8.12191C10.6146 8.05364 10.7496 7.921 10.8209 7.75316C11.0984 7.10035 11.7512 6.67691 12.4871 6.67191C13.4971 6.66504 14.3125 7.50004 14.3125 8.51098C14.3125 8.52314 14.3077 8.53483 14.2993 8.54358C14.2908 8.55233 14.2793 8.55745 14.2671 8.55785C13.5821 8.57691 12.7696 8.62254 12.0446 8.70785C10.3337 8.9091 9.31246 9.84191 9.31246 11.2032C9.31246 11.9279 9.58621 12.5782 10.0834 13.0369C10.55 13.4666 11.1875 13.7032 11.875 13.7032C12.8437 13.7032 13.6778 13.4532 14.3106 12.9775H14.3125C14.3121 13.0678 14.3295 13.1573 14.3637 13.2409C14.3978 13.3244 14.4482 13.4004 14.5117 13.4645C14.5753 13.5287 14.6509 13.5796 14.7341 13.6145C14.8174 13.6494 14.9067 13.6676 14.997 13.668C15.0873 13.6684 15.1768 13.651 15.2603 13.6168C15.3439 13.5826 15.4199 13.5323 15.484 13.4687C15.5481 13.4052 15.5991 13.3296 15.634 13.2463C15.6689 13.1631 15.6871 13.0738 15.6875 12.9835V8.51473C15.6875 6.7591 14.2812 5.30973 12.524 5.29691ZM11.875 12.3282C11.3271 12.3282 10.6875 12.0335 10.6875 11.2032C10.6875 10.8697 10.8071 10.6363 11.0759 10.446C11.3375 10.2607 11.7384 10.1285 12.2053 10.0735C12.8653 9.99566 13.6059 9.95285 14.2409 9.93379C14.2494 9.93378 14.2578 9.93549 14.2656 9.93883C14.2734 9.94216 14.2804 9.94705 14.2862 9.95319C14.2921 9.95932 14.2966 9.96659 14.2996 9.97453C14.3025 9.98248 14.3038 9.99095 14.3034 9.99941C14.2187 11.5657 13.4206 12.3282 11.875 12.3282Z" fill="white"/>
</svg>
